{
	"images":[{
		"uri":"data:image/png;base64,"
	}],
	"asset":{
		"version":"2.0",
		"generator":"Maxon Cinema 4D 26.013 (#200000219)"
	},
	"scenes":[{
		"nodes":[0]
	}],
	"nodes":[{
		"name":"Ear_Bud",
		"translation":[-0.08507788181304932,
		-0.03513984754681587,
		2.1841235160827638],
		"rotation":[0.0,
		0.0,
		0.0,
		-1.0],
		"scale":[1.0,
		1.0,
		1.0],
		"children":[1,
		2,
		3]
	},
	{
		"name":"Null",
		"translation":[0.029794098809361459,
		-0.047704070806503299,
		-0.012568630278110505],
		"rotation":[0.0,
		0.0,
		0.0,
		-1.0],
		"scale":[1.0,
		1.0,
		1.0],
		"children":[4]
	},
	{
		"name":"Logo.1",
		"translation":[0.08507788181304932,
		0.03513984754681587,
		-2.2021474838256838],
		"rotation":[0.0,
		0.0,
		0.0,
		-1.0],
		"scale":[1.0,
		1.0,
		1.0],
		"children":[5]
	},
	{
		"name":"Ear_Bud_Left",
		"translation":[0.0,
		0.0,
		-1.2870508432388306],
		"rotation":[0.04048831760883331,
		-0.9989901781082153,
		0.018113354220986368,
		0.007155661471188068],
		"scale":[1.0,
		1.0,
		1.0],
		"children":[6,
		7,
		8,
		9,
		10,
		11]
	},
	{
		"name":"Disc.1",
		"mesh":0,
		"translation":[0.0,
		0.015261312015354634,
		-0.3872891068458557],
		"rotation":[0.6905156373977661,
		0.0,
		0.0,
		-0.7233175039291382],
		"scale":[1.0,
		1.0,
		1.0]
	},
	{
		"name":"Logo.1",
		"mesh":1
	},
	{
		"name":"Ear_Piece",
		"mesh":2,
		"translation":[-0.03232568874955177,
		0.007990723475813866,
		0.020907724276185037],
		"rotation":[0.3857165277004242,
		-0.554050087928772,
		0.6275060176849365,
		-0.3879270851612091],
		"scale":[0.3962719440460205,
		0.3962719440460205,
		0.3962719440460205]
	},
	{
		"name":"charger",
		"translation":[0.8598130941390991,
		-1.0847786664962769,
		0.8594538569450378],
		"rotation":[0.0,
		0.0,
		0.0,
		-1.0],
		"scale":[1.0,
		1.0,
		1.0],
		"children":[12,
		13,
		14]
	},
	{
		"name":"Torus.1",
		"mesh":3,
		"translation":[0.03009285032749176,
		-0.0592937171459198,
		-0.9480817317962647],
		"rotation":[0.04507628455758095,
		0.029873646795749666,
		-0.003352958243340254,
		-0.9985311627388],
		"scale":[0.9999999403953552,
		1.0,
		0.9999999403953552]
	},
	{
		"name":"Cone",
		"mesh":4,
		"translation":[0.007163827307522297,
		-0.0006904570036567748,
		0.0632903128862381],
		"rotation":[0.03986315056681633,
		0.0,
		0.0,
		-0.9992051720619202],
		"scale":[1.0,
		1.0,
		1.0]
	},
	{
		"name":"Torus",
		"mesh":5,
		"translation":[-0.002984970109537244,
		0.04396948963403702,
		0.3026031255722046],
		"rotation":[0.05560985207557678,
		0.0,
		0.0,
		-0.9984526038169861],
		"scale":[1.0,
		1.0,
		1.0]
	},
	{
		"name":"Boole",
		"translation":[-0.002984970109537244,
		0.04396948963403702,
		0.5960186123847961],
		"rotation":[0.0,
		0.0,
		0.0,
		-1.0],
		"scale":[1.0,
		1.0,
		1.0],
		"children":[15,
		16]
	},
	{
		"name":"Cylinder.2",
		"mesh":6,
		"translation":[-3.805289427490636e-16,
		0.08004416525363922,
		1.776356799695581e-17],
		"rotation":[0.0,
		0.0,
		0.0,
		-1.0],
		"scale":[1.0,
		1.0,
		1.0]
	},
	{
		"name":"Cylinder.1",
		"mesh":7,
		"translation":[-3.8247182457182816e-16,
		0.0007492468575946987,
		0.0],
		"rotation":[0.0,
		0.0,
		0.0,
		-1.0],
		"scale":[1.0,
		1.0,
		1.0]
	},
	{
		"name":"Cylinder",
		"mesh":8,
		"translation":[-3.630429269348438e-16,
		-0.08079341053962708,
		0.0],
		"rotation":[0.0,
		0.0,
		0.0,
		-1.0],
		"scale":[1.0,
		1.0,
		1.0]
	},
	{
		"name":"Mid_Base",
		"mesh":9
	},
	{
		"name":"Cylinder",
		"mesh":10,
		"translation":[-0.0051863109692931179,
		0.47433286905288699,
		1.0963611602783204],
		"rotation":[0.5533446073532105,
		-0.013161828741431237,
		-0.003052696818485856,
		0.8328428268432617],
		"scale":[1.0,
		1.0,
		1.0]
	}],
	"meshes":[{
		"name":"Disc.1",
		"primitives":[{
			"attributes":{
				"POSITION":1,
				"NORMAL":2,
				"TEXCOORD_0":3
			},
			"indices":0,
			"material":0
		}]
	},
	{
		"name":"Logo.1",
		"primitives":[{
			"attributes":{
				"POSITION":5,
				"NORMAL":6,
				"TEXCOORD_0":7
			},
			"indices":4,
			"material":1
		}]
	},
	{
		"name":"Ear_Piece",
		"primitives":[{
			"attributes":{
				"POSITION":9,
				"NORMAL":10,
				"TEXCOORD_0":11
			},
			"indices":8,
			"material":2
		}]
	},
	{
		"name":"Torus.1",
		"primitives":[{
			"attributes":{
				"POSITION":13,
				"NORMAL":14,
				"TEXCOORD_0":15
			},
			"indices":12,
			"material":3
		}]
	},
	{
		"name":"Cone",
		"primitives":[{
			"attributes":{
				"POSITION":17,
				"NORMAL":18,
				"TEXCOORD_0":19
			},
			"indices":16,
			"material":4
		}]
	},
	{
		"name":"Torus",
		"primitives":[{
			"attributes":{
				"POSITION":21,
				"NORMAL":22,
				"TEXCOORD_0":23
			},
			"indices":20,
			"material":3
		}]
	},
	{
		"name":"Cylinder.2",
		"primitives":[{
			"attributes":{
				"POSITION":25,
				"NORMAL":26,
				"TEXCOORD_0":27
			},
			"indices":24,
			"material":4
		}]
	},
	{
		"name":"Cylinder.1",
		"primitives":[{
			"attributes":{
				"POSITION":29,
				"NORMAL":30,
				"TEXCOORD_0":31
			},
			"indices":28,
			"material":4
		}]
	},
	{
		"name":"Cylinder",
		"primitives":[{
			"attributes":{
				"POSITION":33,
				"NORMAL":34,
				"TEXCOORD_0":35
			},
			"indices":32,
			"material":4
		}]
	},
	{
		"name":"Mid_Base",
		"primitives":[{
			"attributes":{
				"POSITION":37,
				"NORMAL":38,
				"TEXCOORD_0":39
			},
			"indices":36,
			"material":3
		}]
	},
	{
		"name":"Cylinder",
		"primitives":[{
			"attributes":{
				"POSITION":41,
				"NORMAL":42,
				"TEXCOORD_0":43
			},
			"indices":40,
			"material":4
		}]
	}],
	"accessors":[{
		"bufferView":0,
		"type":"SCALAR",
		"componentType":5123,
		"count":162,
		"byteOffset":0,
		"min":[0],
		"max":[54]
	},
	{
		"bufferView":1,
		"type":"VEC3",
		"componentType":5126,
		"count":55,
		"byteOffset":0,
		"min":[-0.3499999940395355,
		0.0,
		-0.3494078516960144],
		"max":[0.3499999940395355,
		0.0,
		0.3494078516960144]
	},
	{
		"bufferView":1,
		"type":"VEC3",
		"componentType":5126,
		"count":55,
		"byteOffset":12,
		"min":[0.0,
		1.0,
		0.0],
		"max":[0.0,
		1.0,
		0.0]
	},
	{
		"bufferView":1,
		"type":"VEC2",
		"componentType":5126,
		"count":55,
		"byteOffset":24,
		"min":[0.0,
		0.0008459208765998483],
		"max":[1.0,
		0.9991540908813477]
	},
	{
		"bufferView":2,
		"type":"SCALAR",
		"componentType":5123,
		"count":3876,
		"byteOffset":0,
		"min":[0],
		"max":[1140]
	},
	{
		"bufferView":3,
		"type":"VEC3",
		"componentType":5126,
		"count":1141,
		"byteOffset":0,
		"min":[-0.15041302144527436,
		-1.4845972061157227,
		-0.4495019018650055],
		"max":[0.046463534235954288,
		-0.9448166489601135,
		-0.21691447496414185]
	},
	{
		"bufferView":3,
		"type":"VEC3",
		"componentType":5126,
		"count":1141,
		"byteOffset":12,
		"min":[-0.9999707937240601,
		-0.9965934753417969,
		-0.9966011643409729],
		"max":[0.9999707937240601,
		0.9965874552726746,
		0.99993497133255]
	},
	{
		"bufferView":3,
		"type":"VEC2",
		"componentType":5126,
		"count":1141,
		"byteOffset":24,
		"min":[0.0,
		0.0],
		"max":[1.0,
		1.0]
	},
	{
		"bufferView":4,
		"type":"SCALAR",
		"componentType":5123,
		"count":12672,
		"byteOffset":0,
		"min":[0],
		"max":[2371]
	},
	{
		"bufferView":5,
		"type":"VEC3",
		"componentType":5126,
		"count":2372,
		"byteOffset":0,
		"min":[-1.7365829944610596,
		-0.23766270279884339,
		-1.7365829944610596],
		"max":[1.7365829944610596,
		2.4628138542175295,
		1.7365829944610596]
	},
	{
		"bufferView":5,
		"type":"VEC3",
		"componentType":5126,
		"count":2372,
		"byteOffset":12,
		"min":[-0.9999491572380066,
		-0.9995008111000061,
		-0.9999491572380066],
		"max":[0.9999491572380066,
		0.9988651871681213,
		0.9999491572380066]
	},
	{
		"bufferView":5,
		"type":"VEC2",
		"componentType":5126,
		"count":2372,
		"byteOffset":24,
		"min":[0.0,
		0.0],
		"max":[1.0,
		1.0]
	},
	{
		"bufferView":6,
		"type":"SCALAR",
		"componentType":5123,
		"count":3456,
		"byteOffset":0,
		"min":[0],
		"max":[628]
	},
	{
		"bufferView":7,
		"type":"VEC3",
		"componentType":5126,
		"count":629,
		"byteOffset":0,
		"min":[-0.4232593774795532,
		-0.4232593774795532,
		-0.05431186035275459],
		"max":[0.4232593774795532,
		0.4232593774795532,
		0.05431186035275459]
	},
	{
		"bufferView":7,
		"type":"VEC3",
		"componentType":5126,
		"count":629,
		"byteOffset":12,
		"min":[-1.0,
		-1.0,
		-0.9999834299087524],
		"max":[1.0,
		1.0,
		0.9999834299087524]
	},
	{
		"bufferView":7,
		"type":"VEC2",
		"componentType":5126,
		"count":629,
		"byteOffset":24,
		"min":[0.0,
		0.0],
		"max":[1.0,
		1.0]
	},
	{
		"bufferView":8,
		"type":"SCALAR",
		"componentType":5123,
		"count":1500,
		"byteOffset":0,
		"min":[0],
		"max":[356]
	},
	{
		"bufferView":9,
		"type":"VEC3",
		"componentType":5126,
		"count":357,
		"byteOffset":0,
		"min":[-0.4118266999721527,
		-0.41101405024528506,
		-0.3554712235927582],
		"max":[0.4118266999721527,
		0.41101405024528506,
		0.3554712235927582]
	},
	{
		"bufferView":9,
		"type":"VEC3",
		"componentType":5126,
		"count":357,
		"byteOffset":12,
		"min":[-0.9669967889785767,
		-0.9661673307418823,
		-1.0],
		"max":[0.9669967889785767,
		0.9661673307418823,
		1.0]
	},
	{
		"bufferView":9,
		"type":"VEC2",
		"componentType":5126,
		"count":357,
		"byteOffset":24,
		"min":[0.0,
		0.0],
		"max":[1.0,
		1.0]
	},
	{
		"bufferView":10,
		"type":"SCALAR",
		"componentType":5123,
		"count":5472,
		"byteOffset":0,
		"min":[0],
		"max":[985]
	},
	{
		"bufferView":11,
		"type":"VEC3",
		"componentType":5126,
		"count":986,
		"byteOffset":0,
		"min":[-0.7845568656921387,
		-0.7854516506195068,
		-0.049389999359846118],
		"max":[0.7857499718666077,
		0.7854516506195068,
		0.049389999359846118]
	},
	{
		"bufferView":11,
		"type":"VEC3",
		"componentType":5126,
		"count":986,
		"byteOffset":12,
		"min":[-1.0,
		-0.9996209144592285,
		-0.9999934434890747],
		"max":[1.0,
		0.9996209144592285,
		0.9999934434890747]
	},
	{
		"bufferView":11,
		"type":"VEC2",
		"componentType":5126,
		"count":986,
		"byteOffset":24,
		"min":[0.0,
		0.0],
		"max":[1.0,
		1.0]
	},
	{
		"bufferView":12,
		"type":"SCALAR",
		"componentType":5123,
		"count":1560,
		"byteOffset":0,
		"min":[0],
		"max":[370]
	},
	{
		"bufferView":13,
		"type":"VEC3",
		"componentType":5126,
		"count":371,
		"byteOffset":0,
		"min":[-0.026040786877274514,
		-0.029999999329447748,
		-0.029999999329447748],
		"max":[0.026040786877274514,
		0.029999999329447748,
		0.029999999329447748]
	},
	{
		"bufferView":13,
		"type":"VEC3",
		"componentType":5126,
		"count":371,
		"byteOffset":12,
		"min":[-1.0,
		-1.0,
		-1.0],
		"max":[1.0,
		1.0,
		1.0]
	},
	{
		"bufferView":13,
		"type":"VEC2",
		"componentType":5126,
		"count":371,
		"byteOffset":24,
		"min":[0.0,
		0.0],
		"max":[1.0,
		1.0]
	},
	{
		"bufferView":14,
		"type":"SCALAR",
		"componentType":5123,
		"count":1560,
		"byteOffset":0,
		"min":[0],
		"max":[370]
	},
	{
		"bufferView":15,
		"type":"VEC3",
		"componentType":5126,
		"count":371,
		"byteOffset":0,
		"min":[-0.026040786877274514,
		-0.029999999329447748,
		-0.029999999329447748],
		"max":[0.026040786877274514,
		0.029999999329447748,
		0.029999999329447748]
	},
	{
		"bufferView":15,
		"type":"VEC3",
		"componentType":5126,
		"count":371,
		"byteOffset":12,
		"min":[-1.0,
		-1.0,
		-1.0],
		"max":[1.0,
		1.0,
		1.0]
	},
	{
		"bufferView":15,
		"type":"VEC2",
		"componentType":5126,
		"count":371,
		"byteOffset":24,
		"min":[0.0,
		0.0],
		"max":[1.0,
		1.0]
	},
	{
		"bufferView":16,
		"type":"SCALAR",
		"componentType":5123,
		"count":1560,
		"byteOffset":0,
		"min":[0],
		"max":[370]
	},
	{
		"bufferView":17,
		"type":"VEC3",
		"componentType":5126,
		"count":371,
		"byteOffset":0,
		"min":[-0.026040786877274514,
		-0.029999999329447748,
		-0.029999999329447748],
		"max":[0.026040786877274514,
		0.029999999329447748,
		0.029999999329447748]
	},
	{
		"bufferView":17,
		"type":"VEC3",
		"componentType":5126,
		"count":371,
		"byteOffset":12,
		"min":[-1.0,
		-1.0,
		-1.0],
		"max":[1.0,
		1.0,
		1.0]
	},
	{
		"bufferView":17,
		"type":"VEC2",
		"componentType":5126,
		"count":371,
		"byteOffset":24,
		"min":[0.0,
		0.0],
		"max":[1.0,
		1.0]
	},
	{
		"bufferView":18,
		"type":"SCALAR",
		"componentType":5123,
		"count":101550,
		"byteOffset":0,
		"min":[0],
		"max":[29066]
	},
	{
		"bufferView":19,
		"type":"VEC3",
		"componentType":5126,
		"count":29067,
		"byteOffset":0,
		"min":[-0.9615446329116821,
		-2.1305694580078127,
		-0.3759707808494568],
		"max":[0.9940557479858398,
		1.1065260171890259,
		1.0114691257476807]
	},
	{
		"bufferView":19,
		"type":"VEC3",
		"componentType":5126,
		"count":29067,
		"byteOffset":12,
		"min":[-0.9998359680175781,
		-0.9979976415634155,
		-0.9999772310256958],
		"max":[0.9999821186065674,
		0.9997226595878601,
		0.9999062418937683]
	},
	{
		"bufferView":19,
		"type":"VEC2",
		"componentType":5126,
		"count":29067,
		"byteOffset":24,
		"min":[0.0,
		0.0],
		"max":[1.0,
		1.0]
	},
	{
		"bufferView":20,
		"type":"SCALAR",
		"componentType":5123,
		"count":2250,
		"byteOffset":0,
		"min":[0],
		"max":[752]
	},
	{
		"bufferView":21,
		"type":"VEC3",
		"componentType":5126,
		"count":753,
		"byteOffset":0,
		"min":[-0.6337842345237732,
		-0.46395039558410647,
		-0.632533609867096],
		"max":[0.6337842345237732,
		-0.398607462644577,
		0.632533609867096]
	},
	{
		"bufferView":21,
		"type":"VEC3",
		"componentType":5126,
		"count":753,
		"byteOffset":12,
		"min":[-1.0,
		-0.00006250153091968969,
		-1.0],
		"max":[1.0,
		1.0,
		1.0]
	},
	{
		"bufferView":21,
		"type":"VEC2",
		"componentType":5126,
		"count":753,
		"byteOffset":24,
		"min":[0.0,
		0.000986635684967041],
		"max":[1.0,
		1.0]
	}],
	"bufferViews":[{
		"buffer":0,
		"byteOffset":0,
		"byteLength":324,
		"target":34963
	},
	{
		"buffer":0,
		"byteOffset":324,
		"byteLength":1760,
		"target":34962,
		"byteStride":32
	},
	{
		"buffer":1,
		"byteOffset":0,
		"byteLength":7752,
		"target":34963
	},
	{
		"buffer":1,
		"byteOffset":7752,
		"byteLength":36512,
		"target":34962,
		"byteStride":32
	},
	{
		"buffer":2,
		"byteOffset":0,
		"byteLength":25344,
		"target":34963
	},
	{
		"buffer":2,
		"byteOffset":25344,
		"byteLength":75904,
		"target":34962,
		"byteStride":32
	},
	{
		"buffer":3,
		"byteOffset":0,
		"byteLength":6912,
		"target":34963
	},
	{
		"buffer":3,
		"byteOffset":6912,
		"byteLength":20128,
		"target":34962,
		"byteStride":32
	},
	{
		"buffer":4,
		"byteOffset":0,
		"byteLength":3000,
		"target":34963
	},
	{
		"buffer":4,
		"byteOffset":3000,
		"byteLength":11424,
		"target":34962,
		"byteStride":32
	},
	{
		"buffer":5,
		"byteOffset":0,
		"byteLength":10944,
		"target":34963
	},
	{
		"buffer":5,
		"byteOffset":10944,
		"byteLength":31552,
		"target":34962,
		"byteStride":32
	},
	{
		"buffer":6,
		"byteOffset":0,
		"byteLength":3120,
		"target":34963
	},
	{
		"buffer":6,
		"byteOffset":3120,
		"byteLength":11872,
		"target":34962,
		"byteStride":32
	},
	{
		"buffer":7,
		"byteOffset":0,
		"byteLength":3120,
		"target":34963
	},
	{
		"buffer":7,
		"byteOffset":3120,
		"byteLength":11872,
		"target":34962,
		"byteStride":32
	},
	{
		"buffer":8,
		"byteOffset":0,
		"byteLength":3120,
		"target":34963
	},
	{
		"buffer":8,
		"byteOffset":3120,
		"byteLength":11872,
		"target":34962,
		"byteStride":32
	},
	{
		"buffer":9,
		"byteOffset":0,
		"byteLength":203100,
		"target":34963
	},
	{
		"buffer":9,
		"byteOffset":203100,
		"byteLength":930144,
		"target":34962,
		"byteStride":32
	},
	{
		"buffer":10,
		"byteOffset":0,
		"byteLength":4500,
		"target":34963
	},
	{
		"buffer":10,
		"byteOffset":4500,
		"byteLength":24096,
		"target":34962,
		"byteStride":32
	}],
	"buffers":[{
		"uri":"data:application/octet-stream;base64,",
		"byteLength":2084
	},
	{
		"uri":"data:application/octet-stream;base64,",
		"byteLength":44264
	},
	{
		"uri":"data:application/octet-stream;base64,",
		"byteLength":101248
	},
	{
		"uri":"data:application/octet-stream;base64,",
		"byteLength":27040
	},
	{
		"uri":"data:application/octet-stream;base64,",
		"byteLength":14424
	},
	{
		"uri":"data:application/octet-stream;base64,",
		"byteLength":42496
	},
	{
		"uri":"data:application/octet-stream;base64,",
		"byteLength":14992
	},
	{
		"uri":"data:application/octet-stream;base64,",
		"byteLength":14992
	},
	{
		"uri":"data:application/octet-stream;base64,",
		"byteLength":14992
	},
	{
		"uri":"data:application/octet-stream;base64,",
		"byteLength":1133244
	},
	{
		"uri":"data:application/octet-stream;base64,",
		"byteLength":28596
	}],
	"samplers":[{
		"magFilter":9729,
		"minFilter":9729,
		"wrapS":10497,
		"wrapT":10497
	}],
	"textures":[{
		"sampler":0,
		"source":0
	}],
	"materials":[{
		"pbrMetallicRoughness":{
			"baseColorFactor":[0.29008264462809937,
			0.2966942148760331,
			0.3,
			1.0],
			"metallicFactor":1.0,
			"roughnessFactor":0.3000000000000001
		},
		"normalTexture":{
			"index":0,
			"scale":3.0
		},
		"emissiveFactor":[0.0,
		0.0,
		0.0],
		"alphaMode":"BLEND",
		"doubleSided":false,
		"name":"Speaker Grille"
	},
	{
		"pbrMetallicRoughness":{
			"baseColorFactor":[0.0,
			0.0,
			0.0,
			1.0],
			"metallicFactor":0.0,
			"roughnessFactor":0.5
		},
		"emissiveFactor":[0.0,
		0.0,
		0.0],
		"alphaMode":"OPAQUE",
		"doubleSided":false,
		"name":"Logo"
	},
	{
		"pbrMetallicRoughness":{
			"baseColorFactor":[0.7721960784313724,
			0.8596862745098038,
			0.7721960784313724,
			1.0],
			"metallicFactor":1.0,
			"roughnessFactor":1.0
		},
		"emissiveFactor":[0.0,
		0.0,
		0.0],
		"alphaMode":"OPAQUE",
		"doubleSided":false,
		"name":"Plastic_Ear"
	},
	{
		"pbrMetallicRoughness":{
			"baseColorFactor":[0.6448235294117647,
			0.7178823529411765,
			0.6448235294117647,
			1.0],
			"metallicFactor":0.1458,
			"roughnessFactor":0.7371000000000001
		},
		"emissiveFactor":[0.0,
		0.0,
		0.0],
		"alphaMode":"OPAQUE",
		"doubleSided":false,
		"name":"other_Plastic"
	},
	{
		"pbrMetallicRoughness":{
			"baseColorFactor":[1.0,
			0.859,
			0.53,
			1.0],
			"metallicFactor":1.0,
			"roughnessFactor":1.0
		},
		"emissiveFactor":[0.0,
		0.0,
		0.0],
		"alphaMode":"OPAQUE",
		"doubleSided":false,
		"name":"Charge"
	}]
}