<?xml version="1.0" encoding="utf-8"?>
<!-- Generator: Adobe Illustrator 27.9.0, SVG Export Plug-In . SVG Version: 6.00 Build 0)  -->
<svg version="1.1" id="Tips" xmlns="http://www.w3.org/2000/svg" xmlns:xlink="http://www.w3.org/1999/xlink" x="0px" y="0px"
	 viewBox="0 0 720 720" style="enable-background:new 0 0 720 720;" xml:space="preserve">
<style type="text/css">
	.st0{fill:none;stroke:#13171A;stroke-width:3.75;stroke-miterlimit:10;}
</style>
<g id="Tip">
	
		<ellipse transform="matrix(0.9991 -4.187566e-02 4.187566e-02 0.9991 -12.3232 9.6882)" class="st0" cx="225.1" cy="299" rx="46.3" ry="25.3"/>
	
		<ellipse transform="matrix(0.9991 -4.187566e-02 4.187566e-02 0.9991 -11.7759 9.624)" class="st0" cx="223.8" cy="285.9" rx="73.6" ry="38.7"/>
	<path class="st0" d="M345.9,366.2c-16.3,31.6-54.8,51.8-111.6,55.5c-54.8,3.6-97-10.7-118.9-37.8"/>
	<path class="st0" d="M287,264.2c55.4,35.9,61.6,101.4,60.8,139.5c-1,46.5-58,64.8-112,67.8c-54,2.5-112.6-10.2-118.2-56.3
		c-4.7-38.9-5.2-108.6,46.3-149.8"/>
	<path class="st0" d="M171.3,314.6c-9-5-14-12.7-14.4-20.6c-0.8-19.4,28.5-36.5,65.4-38s67.5,13,68.3,32.4
		c0.3,7.7-4.4,16.8-12.7,22.1"/>
	<path class="st0" d="M204.6,323.9c-12.5-3.5-21.1-10.5-21.4-18.9c-0.5-12.7,17.9-23.8,41.2-24.8c23.3-1,42.6,8.5,43.1,21.3
		c0.3,8.1-7,15.6-18.5,20.2"/>
	<path class="st0" d="M344.2,355.5c-16.3,31.6-54,52.6-110.7,56.4c-54.8,3.6-96-11.7-117.9-38.8"/>
</g>
<g id="Tip-2">
	
		<ellipse transform="matrix(0.9991 -4.187566e-02 4.187566e-02 0.9991 -17.3304 21.1479)" class="st0" cx="496.1" cy="424.2" rx="40.9" ry="22.4"/>
	
		<ellipse transform="matrix(0.9991 -4.187566e-02 4.187566e-02 0.9991 -16.8476 21.0912)" class="st0" cx="495" cy="412.7" rx="64.9" ry="34.2"/>
	<path class="st0" d="M602.8,483.6c-14.4,27.9-48.4,45.7-98.5,49c-48.3,3.2-85.6-9.5-104.9-33.4"/>
	<path class="st0" d="M550.8,393.5c48.9,31.7,54.4,89.5,53.7,123.1c-0.9,41-51.2,57.2-98.9,59.8c-47.7,2.2-99.4-9-104.3-49.7
		c-4.2-34.4-4.6-95.9,40.9-132.3"/>
	<path class="st0" d="M448.7,438c-8-4.4-12.4-11.2-12.7-18.2c-0.7-17.2,25.1-32.2,57.7-33.5s59.6,11.4,60.3,28.6
		c0.3,6.8-3.8,14.8-11.2,19.5"/>
	<path class="st0" d="M478,446.2c-11-3.1-18.6-9.3-18.9-16.7c-0.5-11.2,15.8-21,36.3-21.9c20.5-0.9,37.6,7.5,38,18.8
		c0.3,7.2-6.2,13.8-16.3,17.8"/>
	<path class="st0" d="M601.2,474.1c-14.4,27.9-47.6,46.4-97.7,49.8c-48.3,3.2-84.8-10.3-104.1-34.2"/>
</g>
<g id="Tip-3">
	
		<ellipse transform="matrix(0.9991 -4.187566e-02 4.187566e-02 0.9991 -7.1597 20.9759)" class="st0" cx="497.1" cy="181.4" rx="34" ry="18.6"/>
	
		<ellipse transform="matrix(0.9991 -4.187566e-02 4.187566e-02 0.9991 -6.758 20.9289)" class="st0" cx="496.2" cy="171.8" rx="54" ry="28.4"/>
	<path class="st0" d="M585.8,230.8c-12,23.2-40.2,38-81.9,40.8c-40.2,2.7-71.2-7.9-87.3-27.8"/>
	<path class="st0" d="M542.6,155.9c40.6,26.3,45.2,74.5,44.6,102.4c-0.7,34.1-42.6,47.6-82.2,49.7c-39.7,1.8-82.7-7.5-86.8-41.3
		c-3.5-28.6-3.8-79.8,34-110"/>
	<path class="st0" d="M457.6,192.8c-6.6-3.7-10.3-9.3-10.5-15.1c-0.6-14.3,20.9-26.8,48-27.9c27.1-1.1,49.6,9.5,50.2,23.8
		c0.2,5.7-3.2,12.3-9.3,16.2"/>
	<path class="st0" d="M482,199.6c-9.2-2.6-15.5-7.7-15.7-13.9c-0.4-9.3,13.1-17.5,30.2-18.2c17.1-0.7,31.2,6.3,31.6,15.6
		c0.2,6-5.2,11.4-13.6,14.8"/>
	<path class="st0" d="M584.5,222.9c-12,23.2-39.6,38.6-81.3,41.4c-40.2,2.7-70.5-8.6-86.6-28.5"/>
</g>
</svg>
