<?xml version="1.0" encoding="utf-8"?>
<!-- Generator: Adobe Illustrator 27.9.0, SVG Export Plug-In . SVG Version: 6.00 Build 0)  -->
<svg version="1.1" id="Manual" xmlns="http://www.w3.org/2000/svg" xmlns:xlink="http://www.w3.org/1999/xlink" x="0px" y="0px"
	 viewBox="0 0 720 720" style="enable-background:new 0 0 720 720;" xml:space="preserve">
<style type="text/css">
	.st0{fill:none;stroke:#13171A;stroke-width:3.75;stroke-miterlimit:10;}
	.st1{fill:none;stroke:#13171A;stroke-width:2;stroke-miterlimit:10;}
</style>
<g id="Manual-2">
	<path class="st0" d="M155.9,268.6V137.4c0-27.5,22.3-49.9,49.9-49.9H495l135.4,135.4v359.7c0,27.5-22.3,49.9-49.9,49.9H205.7
		c-27.5,0-49.9-22.3-49.9-49.9V331.3"/>
	<line class="st0" x1="234.3" y1="460.1" x2="550.6" y2="460.1"/>
	<line class="st0" x1="234.3" y1="518.5" x2="550.6" y2="518.5"/>
	<line class="st0" x1="234.3" y1="576.9" x2="392.4" y2="576.9"/>
	<path class="st0" d="M141.6,268V130.9c0-29.2,23.7-59.8,52.9-59.8h306.7l143.5,143.5v372.1c0,29.2-23.7,62-52.9,62H194.5
		c-29.2,0-52.9-32.9-52.9-62V331.2"/>
	<g>
		<path class="st1" d="M211.4,419.7v-60.1h18.2l10.9,41l10.8-41h18.2v60.1h-11.3v-47.3l-11.9,47.3h-11.7l-11.9-47.3v47.3H211.4
			L211.4,419.7z"/>
		<path class="st1" d="M338.2,419.7h-13.2l-5.2-13.7h-24l-5,13.7h-12.9l23.4-60.1h12.8L338.2,419.7L338.2,419.7z M315.8,395.9
			l-8.3-22.3l-8.1,22.3H315.8z"/>
		<path class="st1" d="M346.8,419.7v-60.1h11.8l24.6,40.2v-40.2h11.3v60.1h-12.2l-24.2-39.2v39.2H346.8z"/>
		<path class="st1" d="M409,359.6h12.1v32.6c0,5.2,0.2,8.5,0.5,10c0.5,2.5,1.8,4.4,3.7,5.9c2,1.5,4.6,2.2,8,2.2s6-0.7,7.8-2.1
			c1.8-1.4,2.8-3.1,3.2-5.2c0.4-2,0.5-5.5,0.5-10.2v-33.3H457v31.6c0,7.2-0.3,12.3-1,15.3c-0.7,3-1.9,5.5-3.6,7.5
			c-1.8,2-4.1,3.7-7.1,4.9c-3,1.2-6.8,1.8-11.6,1.8c-5.7,0-10.1-0.7-13.1-2c-3-1.3-5.3-3-7-5.2c-1.7-2.1-2.9-4.3-3.4-6.7
			c-0.8-3.5-1.2-8.5-1.2-15.3L409,359.6L409,359.6z"/>
		<path class="st1" d="M523.7,419.7h-13.2l-5.2-13.7h-24l-5,13.7h-12.9l23.4-60.1h12.8L523.7,419.7L523.7,419.7z M501.3,395.9
			l-8.3-22.3l-8.1,22.3H501.3z"/>
		<path class="st1" d="M532.5,419.7v-59.6h12.1v49.5h30.2v10.1L532.5,419.7L532.5,419.7z"/>
	</g>
	<path class="st0" d="M244.7,196.8l16.1,16.1c5.2,5.2,5.2,10.5,0,15.7L156.3,330.7c-5.2,5.2-10.5,5.2-15.7,0l-61.3-61.3
		c-5.2-5.2-5.2-10.5,0-15.7l16.1-16.1c5.2-5.2,10.5-5.2,15.7,0l38,37.7l80-78.6C234.3,191.5,239.5,191.6,244.7,196.8L244.7,196.8
		L244.7,196.8z"/>
</g>
</svg>
