<?xml version="1.0" encoding="utf-8"?>
<!-- Generator: Adobe Illustrator 27.9.0, SVG Export Plug-In . SVG Version: 6.00 Build 0)  -->
<svg version="1.1" id="Charging_Cable" xmlns="http://www.w3.org/2000/svg" xmlns:xlink="http://www.w3.org/1999/xlink" x="0px"
	 y="0px" viewBox="0 0 720 720" style="enable-background:new 0 0 720 720;" xml:space="preserve">
<style type="text/css">
	.st0{fill:none;stroke:#000;stroke-width:3.75;stroke-miterlimit:10;}
</style>
<g id="Cord">
	<circle class="st0" cx="236.2" cy="349.3" r="197.8"/>
	<path class="st0" d="M502.5,592.1H316.7C162.9,592.1,38.3,490,38.3,349.3s124.6-242.9,278.3-242.9h216"/>
	<g>
		<path class="st0" d="M542.5,71.9h64.7c5.5,0,9.9,4.4,9.9,9.9v64.7c0,5.5-4.4,9.9-9.9,9.9h-64.7c-5.5,0-9.9-4.4-9.9-9.9V81.8
			C532.6,76.3,537,71.9,542.5,71.9z"/>
		<path class="st0" d="M617.1,92h61.7c1.6,0,2.8,1.3,2.8,2.9v38.7c0,1.6-1.3,2.9-2.8,2.9h-61.7"/>
	</g>
	<g>
		<path class="st0" d="M587.8,542.6h59.3c1.6,0,2.8,1.3,2.8,2.8v78.8c0,1.6-1.3,2.8-2.8,2.8h-59.3"/>
		<path class="st0" d="M541.7,648.1L541.7,648.1L541.7,648.1c-21.6,0-39.2-17.7-39.2-39.2v-48.1c0-21.6,17.7-39.2,39.2-39.2l0,0l0,0
			h41.4c2.6,0,4.7,2.1,4.7,4.7v117.1c0,2.6-2.1,4.7-4.7,4.7L541.7,648.1L541.7,648.1z"/>
	</g>
	<circle class="st0" cx="236.2" cy="349.3" r="186"/>
	<path class="st0" d="M144.4,173.9c45.8-33.5,105.3-53,170.4-53h217.8"/>
	<path class="st0" d="M144.4,524.6c45.8,33.5,105.3,53,170.4,53h187.7"/>
</g>
</svg>
